<svg xmlns="http://www.w3.org/2000/svg" width="108" height="46"><g class="layer"><path fill="#31261A" d="M5.86 10.63 4.08 9.55c-1.12-.67-1.92-1.34-2.39-2-.47-.66-.71-1.42-.71-2.28 0-1.29.45-2.34 1.34-3.14.9-.81 2.06-1.21 3.49-1.21 1.37 0 2.62.38 3.76 1.15v2.66c-1.18-1.14-2.44-1.7-3.8-1.7-.77 0-1.4.18-1.89.54-.49.35-.74.8-.74 1.36 0 .49.18.95.54 1.38.36.43.94.88 1.75 1.35l1.79 1.05c2 1.19 3 2.7 3 4.55 0 1.31-.44 2.38-1.33 3.2-.87.82-2.01 1.23-3.42 1.23-1.61 0-3.09-.5-4.42-1.49v-2.98c1.27 1.6 2.74 2.41 4.4 2.41.73 0 1.34-.21 1.83-.61.49-.42.74-.93.74-1.55 0-1-.72-1.95-2.16-2.84zm18.48-9.5h2.34V17.5h-2.34v-7.12h-9.2v7.12H12.8V1.13h2.34v7.08h9.2V1.13zm14-.24c2.54 0 4.64.81 6.32 2.41 1.69 1.6 2.53 3.61 2.53 6.02 0 2.41-.85 4.41-2.55 6-1.7 1.58-3.84 2.37-6.43 2.37-2.46 0-4.52-.79-6.17-2.37-1.64-1.59-2.46-3.57-2.46-5.95 0-2.45.83-4.47 2.48-6.07C33.72 1.7 35.81.89 38.34.89zm.1 2.23c-1.88 0-3.42.59-4.63 1.76C32.61 6.05 32 7.55 32 9.37c0 1.76.61 3.23 1.82 4.4 1.21 1.18 2.73 1.76 4.55 1.76 1.83 0 3.35-.6 4.57-1.79 1.22-1.2 1.84-2.69 1.84-4.47 0-1.73-.62-3.19-1.84-4.37-1.22-1.19-2.72-1.78-4.5-1.78zM49.93 17.5V1.11h5.2c1.56 0 2.8.42 3.73 1.26.93.84 1.4 1.98 1.4 3.4 0 .95-.24 1.8-.72 2.53-.47.74-1.13 1.27-1.95 1.61-.83.32-2.02.49-3.57.49h-1.73v7.1h-2.36zm4.78-14.31h-2.42v5.12h2.57c.95 0 1.68-.22 2.2-.67.51-.45.77-1.09.77-1.93 0-1.68-1.04-2.52-3.12-2.52zm-37.83 37.7c0 1.4-.49 2.52-1.45 3.36-.95.83-2.29 1.25-4 1.25H2.04V29.26h7.85c1.02 0 1.9.1 2.65.29.76.2 1.37.47 1.83.81.46.34.8.73 1.03 1.19.23.47.34.97.34 1.52 0 .59-.12 1.14-.35 1.65-.24.5-.53.91-.88 1.24-.35.32-.69.55-1.05.68 1.11.44 1.96.99 2.54 1.66.58.67.88 1.53.88 2.59zm-5.72-6.96c0-.78-.26-1.3-.78-1.55-.51-.26-1.32-.39-2.41-.39H6.94v3.89h1.05c1.12 0 1.92-.13 2.42-.39s.75-.78.75-1.56zm.79 6.77c0-1.4-1-2.09-3.02-2.09H6.94v4.16h1.99c2.02 0 3.02-.69 3.02-2.07zm25.2 4.8h-5.02l-1.32-3.29h-7.06l-1.34 3.29h-5.02l7.18-16.24h5.42l7.16 16.24zm-7.47-6.12-2.38-5.93-2.4 5.93h4.78zm26.71 6.12h-5.98l-6.21-7.61v7.61h-4.9V29.26h4.9v7.26l5.89-7.26h5.32l-6.05 7.6 7.03 8.64zm14.38 0H58.52V29.26h12.05v3.26h-7.15v2.97h6.82v3.27h-6.82v3.47h7.35v3.27zm19.02 0h-5.26l-1.28-2.88c-.47-1.06-.89-1.83-1.27-2.31-.37-.49-.74-.81-1.1-.94-.35-.14-.81-.21-1.37-.21h-.55v6.34h-4.9V29.26h8.33c1.35 0 2.45.27 3.31.82.86.55 1.48 1.21 1.85 1.99.38.78.58 1.52.58 2.23 0 .82-.17 1.51-.49 2.08-.31.57-.64.98-.99 1.23-.35.26-.75.51-1.19.74.53.31.96.67 1.29 1.09.35.42.81 1.26 1.4 2.53l1.64 3.53zm-6.66-11.11c0-.75-.24-1.27-.74-1.57-.49-.3-1.29-.44-2.4-.44h-1.03v3.91h1.06c1.19 0 2.01-.13 2.44-.39.45-.26.67-.77.67-1.51zm24.03-5.13-6.37 8.8v7.44h-4.9v-7.35l-6.48-8.89h5.09l3.73 5.11 3.74-5.11h5.19z"/></g></svg>